<svg width="81" height="16" viewBox="0 0 81 16" fill="none" xmlns="http://www.w3.org/2000/svg">
<path d="M2.3206 4.33228H2.35753C2.82051 4.37468 3.23521 4.05525 3.31758 3.60014L1.4344 3.3316L1.46848 3.54078C1.53381 3.96762 1.88602 4.29553 2.31776 4.33228" fill="#388EE9"/>
<path d="M9.96411 9.41195C11.9865 8.83529 13.3981 6.9668 13.3981 4.87217C13.3953 2.2659 11.2707 0.145828 8.65469 0.145828H0V1.85036C1.76957 1.28784 3.8885 2.05954 4.81731 3.1959C4.81731 3.1959 9.2739 2.81429 9.91298 5.69758C9.91298 5.69758 5.68931 3.9139 3.34031 7.21556C2.78359 8.00139 2.64725 8.94836 2.3064 10.1073C1.67015 12.2698 1.29522 13.8839 0.457304 15.5771H3.51073L4.5986 10.5116H6.32272L9.33638 15.5771H13.1113L9.53805 9.62396L9.9215 9.42043L9.96411 9.40629V9.41195Z" fill="#388EE9"/>
<path d="M66.6272 3.67647C65.6785 3.19874 64.5849 2.9726 63.3607 2.9726H59.2024V15.58H63.0284C64.352 15.58 65.5194 15.351 66.5107 14.8648C67.5105 14.3729 68.2831 13.6351 68.8143 12.6599C69.3568 11.6847 69.6096 10.5087 69.6096 9.16603C69.6096 7.82332 69.3682 6.74633 68.8427 5.81067C68.3229 4.87501 67.5787 4.15701 66.6243 3.67647M65.8972 12.0578C65.3036 12.6401 64.352 12.9906 62.9148 12.9906H62.0456V5.44884H63.2358C64.0737 5.44884 64.7383 5.59301 65.2581 5.85307H65.2638L65.2695 5.85872C65.7807 6.10183 66.1614 6.46931 66.4227 6.98378V6.99226C66.6954 7.51238 66.8544 8.21907 66.8544 9.15473C66.8544 10.537 66.4965 11.4614 65.8915 12.055" fill="#388EE9"/>
<path d="M79.9827 9.92926C79.7214 9.49394 79.3664 9.14907 78.9261 8.89749C79.2613 8.62612 79.5283 8.29822 79.7129 7.90813C79.9316 7.45867 80.031 6.96399 80.031 6.43538C80.031 5.64954 79.8407 4.94285 79.3976 4.38033C78.9715 3.82911 78.3495 3.47011 77.6082 3.26376C76.8952 3.06306 76.0431 2.96978 75.0632 2.96978H71.1576V15.5771H75.8073C76.685 15.5771 77.4747 15.4471 78.1592 15.1616H78.162C78.8579 14.8648 79.4203 14.4238 79.818 13.8274V13.8217C80.2185 13.2111 80.4031 12.4931 80.4031 11.7045C80.4031 11.0373 80.2781 10.4268 79.9742 9.9236M74.0009 5.44884H75.1967C76.1226 5.44884 76.6595 5.58736 76.9236 5.75413L76.9407 5.76544C77.1338 5.88134 77.2758 6.07356 77.2758 6.51453C77.2758 6.98378 77.1452 7.24101 76.9691 7.39648C76.8043 7.53217 76.3612 7.69047 75.4154 7.69047H73.998V5.45167L74.0009 5.44884ZM77.1821 12.609C76.989 12.8012 76.5316 12.9906 75.5886 12.9906H74.0009V10.2798H75.4779C76.1226 10.2798 76.5657 10.3589 76.8441 10.4777L76.8526 10.4833H76.8611C77.1679 10.6049 77.3128 10.7434 77.3838 10.8677L77.3894 10.8762V10.8847C77.4974 11.0571 77.5627 11.2748 77.5627 11.5688C77.5627 12.0437 77.4207 12.3688 77.1793 12.6119" fill="#388EE9"/>
<path d="M22.6948 6.38167C22.3369 5.92939 21.8512 5.58735 21.2376 5.36121C20.6355 5.12094 19.8657 4.99939 18.9199 4.99939C18.0621 4.99939 17.2327 5.14073 16.4317 5.4234C15.6307 5.69194 14.9291 6.10465 14.3298 6.65587L16.0454 8.39715C16.3891 8.01554 16.7754 7.71873 17.2043 7.5039C17.6474 7.27776 18.1331 7.16469 18.6642 7.16469C19.221 7.16469 19.701 7.33429 20.1015 7.6735C20.5162 7.99858 20.7235 8.44521 20.7235 9.01339C20.2804 9.01339 19.7947 9.02187 19.2636 9.036C18.7495 9.05013 18.2268 9.09254 17.6985 9.16321C17.1844 9.23387 16.6845 9.34694 16.1959 9.50242C15.7102 9.64375 15.2728 9.85011 14.8865 10.1187C14.5144 10.3872 14.2133 10.7292 13.9861 11.1391C13.7702 11.549 13.6651 12.0522 13.6651 12.6486C13.6651 13.1716 13.7646 13.6323 13.9662 14.0309C14.1679 14.4266 14.4377 14.7602 14.7814 15.0287C15.1251 15.2973 15.5171 15.498 15.9602 15.6252C16.4175 15.7665 16.889 15.8372 17.3747 15.8372C18.0337 15.8372 18.6557 15.7156 19.2408 15.4754C19.8402 15.2351 20.3202 14.8365 20.6781 14.2853H20.7207V15.5828H23.6804V10.3335C23.6804 9.4685 23.6094 8.71092 23.4645 8.06077C23.3225 7.39648 23.064 6.83678 22.6919 6.38167M20.7207 11.778C20.7207 12.1002 20.6497 12.3801 20.5105 12.6203C20.3827 12.8578 20.2066 13.0557 19.9822 13.2083C19.7578 13.3609 19.4965 13.4825 19.2011 13.5645C18.9199 13.6493 18.6245 13.6917 18.3149 13.6917C17.9627 13.6917 17.6247 13.6012 17.3009 13.4203C16.9771 13.2366 16.8151 12.9567 16.8151 12.5779C16.8151 12.2274 16.9288 11.9532 17.1532 11.7582C17.3917 11.5631 17.6729 11.4161 17.9968 11.3172C18.3348 11.2183 18.6784 11.1617 19.0307 11.1504C19.3971 11.1222 19.6981 11.108 19.9396 11.108H20.7207V11.7808V11.778Z" fill="#388EE9"/>
<path d="M44.8697 6.58238C44.4607 6.10748 43.9551 5.74283 43.3501 5.48842C42.7593 5.23684 42.0975 5.10963 41.3675 5.10963C40.5807 5.10963 39.8337 5.23684 39.1293 5.48842C38.4391 5.74 37.8341 6.10465 37.3143 6.58238C36.8087 7.04597 36.4082 7.60566 36.1128 8.2643C35.8174 8.92293 35.6697 9.65789 35.6697 10.472C35.6697 11.2861 35.8174 12.0211 36.1128 12.6797C36.4082 13.3383 36.8087 13.9065 37.3143 14.3814C37.8341 14.845 38.4391 15.2012 39.1293 15.4528C39.8337 15.7043 40.5779 15.8315 41.3675 15.8315C42.1969 15.8315 43.0008 15.6563 43.7733 15.3058C44.5488 14.9552 45.1879 14.4577 45.6935 13.8132L43.4779 12.1963C43.211 12.561 42.8928 12.8606 42.5264 13.1009C42.1742 13.3242 41.7396 13.4373 41.217 13.4373C40.5978 13.4373 40.078 13.262 39.6548 12.9115C39.2316 12.5468 38.9589 12.0635 38.8311 11.4614H46.1735V10.4748C46.1735 9.66072 46.0599 8.92576 45.8355 8.26713C45.6111 7.60849 45.2873 7.04879 44.8641 6.5852M38.7771 9.33847C38.7913 9.08689 38.8481 8.84944 38.9447 8.6233C39.0583 8.38585 39.206 8.18232 39.3878 8.01272C39.5838 7.8318 39.8167 7.68481 40.0837 7.57174C40.3507 7.45867 40.6603 7.40214 41.0125 7.40214C41.5891 7.40214 42.0606 7.59153 42.427 7.97032C42.7934 8.3491 42.9695 8.80421 42.9553 9.33564H38.7771V9.33847Z" fill="#388EE9"/>
<path d="M56.8221 6.49192C56.5551 6.0566 56.1717 5.72021 55.6775 5.48277C55.1832 5.23119 54.5328 5.10398 53.7289 5.10398C53.3483 5.10398 52.9933 5.15204 52.6695 5.25097C52.3457 5.34991 52.0559 5.47429 51.8003 5.62976C51.5447 5.7824 51.326 5.96049 51.1442 6.15554C50.9595 6.35058 50.8204 6.54846 50.721 6.7435H50.6784V5.33012H47.5994V15.5828H50.7976V10.4974C50.7976 10.1611 50.8175 9.8388 50.8601 9.53069C50.9027 9.22257 50.988 8.94837 51.1129 8.71093C51.255 8.45934 51.4509 8.26147 51.7066 8.12296C51.9594 7.96749 52.2917 7.89117 52.7007 7.89117C53.1097 7.89117 53.4193 7.97597 53.6324 8.14275C53.8568 8.30953 54.0187 8.52719 54.1181 8.79573C54.2317 9.06145 54.2942 9.35543 54.3084 9.67768C54.3368 9.9858 54.351 10.2883 54.351 10.5822V15.5856H57.5493V9.94622C57.5493 9.25932 57.4981 8.62047 57.4016 8.0325C57.3022 7.44454 57.1119 6.93007 56.8307 6.49757" fill="#388EE9"/>
<path d="M29.8753 12.284H29.8327L27.2309 5.33012H23.7968L28.0546 15.5828H31.4205L35.4879 5.33012H32.2868L29.8753 12.284Z" fill="#388EE9"/>
</svg>
