<svg version="1.1" id="Layer_1" xmlns="http://www.w3.org/2000/svg" xmlns:xlink="http://www.w3.org/1999/xlink" x="0px" y="0px"
	 width="100%" viewBox="0 0 549 549" enable-background="new 0 0 549 549" xml:space="preserve">
<path fill="#F2F8FB" opacity="1.000000" stroke="none" 
	d="
M313.000000,550.000000 
	C208.690292,550.000000 104.880577,550.000000 1.035435,550.000000 
	C1.035435,367.065277 1.035435,184.130524 1.035435,1.097887 
	C183.893066,1.097887 366.786194,1.097887 549.839661,1.097887 
	C549.839661,183.999893 549.839661,366.999939 549.839661,550.000000 
	C471.130463,550.000000 392.315216,550.000000 313.000000,550.000000 
M489.076080,192.547195 
	C489.376892,192.662521 489.677673,192.777832 490.173462,193.171585 
	C490.173462,193.171585 490.509857,193.220413 490.844147,193.768707 
	C491.761597,194.344025 492.679016,194.919342 494.428223,196.016235 
	C494.128143,193.464188 493.928497,191.765991 493.889099,189.159958 
	C493.740234,186.110199 493.591400,183.060455 493.673737,179.140701 
	C493.383453,175.790222 493.093201,172.439743 492.953033,168.228653 
	C492.836731,166.493774 492.720398,164.758881 492.811096,162.105652 
	C492.454559,155.086121 492.098022,148.066589 491.892303,140.193771 
	C491.783142,138.471848 491.673981,136.749939 491.758392,134.108246 
	C491.433807,128.433304 491.109222,122.758354 490.930969,116.320457 
	C490.839600,115.554100 490.748199,114.787735 490.874176,113.104485 
	C490.515198,106.425896 490.156219,99.747314 489.942841,92.158386 
	C489.751892,89.119179 489.560974,86.079979 489.620178,82.320007 
	C489.233154,75.859543 486.001801,80.474876 483.994263,80.923141 
	C483.994263,80.923141 483.893280,80.804344 483.179932,80.829773 
	C482.568848,81.157875 481.957794,81.485977 481.201752,81.685646 
	C481.201752,81.685646 481.028076,81.771317 480.222351,81.819580 
	C474.678192,83.817871 469.134003,85.816162 462.854797,87.849213 
	C435.500732,97.286407 408.146667,106.723595 380.792603,116.160782 
	C380.845093,116.737587 380.897583,117.314384 380.950073,117.891190 
	C382.902191,119.296486 384.854279,120.701782 387.170319,122.677673 
	C391.452362,125.443764 395.734375,128.209854 400.001526,131.001373 
	C400.001526,131.001373 400.024933,130.981049 400.348969,131.543289 
	C401.469513,132.161728 402.590027,132.780182 403.813721,133.132889 
	C403.813721,133.132889 403.657959,133.371613 403.914093,133.916306 
	C404.606049,134.284698 405.297974,134.653091 405.997772,134.997330 
	C405.997772,134.997330 405.976593,135.013443 406.341370,135.594406 
	C408.124786,136.947159 409.908203,138.299896 411.887939,139.801559 
	C409.726990,143.140030 407.860931,146.050140 405.967804,148.942566 
	C400.543640,157.230087 395.108459,165.510437 389.813812,173.831100 
	C389.813812,173.831100 389.725525,173.720825 389.132141,174.010895 
	C384.760254,180.678009 380.388336,187.345108 375.781067,194.171890 
	C375.781067,194.171890 375.774750,194.456238 375.180023,194.820953 
	C370.910675,200.889008 366.641296,206.957062 362.303467,213.122452 
	C359.279755,211.603470 356.649231,210.281998 354.005585,209.004730 
	C354.005585,209.004730 354.041656,208.975662 353.688904,208.401382 
	C350.462189,206.592941 347.235504,204.784515 344.003510,203.004227 
	C344.003510,203.004227 344.027100,202.986771 343.651581,202.427124 
	C337.066101,198.517975 330.542114,194.500076 323.878052,190.729828 
	C317.010468,186.844406 309.660034,185.417633 301.735107,186.574020 
	C289.419098,188.371155 280.836334,195.443253 274.158173,205.385025 
	C257.718292,229.859131 241.266083,254.325043 224.875534,278.832184 
	C218.598526,288.217560 212.475739,297.706116 205.813110,307.694214 
	C205.551437,308.096222 205.289749,308.498260 204.995514,308.686432 
	C204.995514,308.686432 205.071686,308.806030 204.581223,309.458527 
	C203.948715,310.937744 203.316208,312.416992 202.171524,314.074158 
	C201.759537,314.649261 201.347534,315.224365 200.360550,316.006866 
	C200.244522,316.344360 200.128510,316.681824 199.711700,317.619385 
	C195.868256,322.805939 192.144623,328.087311 188.139084,333.145477 
	C185.487091,336.494415 185.630753,339.272980 187.840073,342.966522 
	C204.309372,370.499908 220.510941,398.193176 236.876633,425.788788 
	C246.109421,441.356995 255.494125,456.835083 264.921356,473.017548 
	C265.757202,474.330719 266.593048,475.643890 267.676758,477.346527 
	C305.284058,414.659668 342.520111,352.591614 380.311859,289.597382 
	C358.299957,294.534363 343.739532,280.841125 327.517426,271.629913 
	C326.530090,273.122986 325.770874,274.198761 325.084656,275.319244 
	C307.091217,304.700714 289.121429,334.096710 271.077545,363.447174 
	C270.008606,365.185944 268.354950,366.565247 266.678223,367.493591 
	C263.443115,363.061920 260.358856,358.510254 256.945099,354.220734 
	C245.980118,340.442719 234.893402,326.761566 223.887375,312.335724 
	C225.984421,310.602051 228.081467,308.868408 230.089325,307.098022 
	C230.089325,307.098022 230.087875,307.194489 230.624161,307.026062 
	C230.793915,306.696045 230.963654,306.366028 231.705795,305.987518 
	C232.148193,305.695892 232.590591,305.404266 233.627441,304.970062 
	C234.370941,304.299255 235.114441,303.628448 236.383377,302.875000 
	C236.597015,302.609558 236.810654,302.344086 237.572342,301.963715 
	C237.796585,301.682739 238.020813,301.401764 238.096802,301.101227 
	C238.096802,301.101227 238.115662,301.249573 238.677521,301.125854 
	C238.913498,300.839539 239.149475,300.553253 239.268402,300.316956 
	C239.268402,300.316956 239.377945,300.381805 239.915115,300.199707 
	C240.286316,299.793182 240.657516,299.386658 241.475601,298.917175 
	C241.771454,298.789032 241.968399,298.571381 242.657318,298.146149 
	C243.100952,297.754456 243.544586,297.362762 244.600540,296.969666 
	C245.006744,297.010101 245.412933,297.050507 246.023956,297.689148 
	C246.905853,298.563416 247.787750,299.437683 248.987381,300.057343 
	C248.987381,300.057343 248.670883,300.305450 248.769791,300.792999 
	C248.920105,301.120941 249.172119,301.320221 249.750946,301.300629 
	C249.750946,301.300629 249.559341,301.449341 249.752457,302.078369 
	C251.320969,303.855835 252.889481,305.633301 254.543396,307.433014 
	C254.543396,307.433014 254.558075,307.520050 254.779190,308.141388 
	C258.463165,312.789215 262.147156,317.437042 266.156128,322.494873 
	C282.390259,297.988342 298.256226,274.037659 314.573700,250.092087 
	C314.573700,250.092087 315.019379,250.019394 315.390564,250.441177 
	C315.896332,250.659256 316.402069,250.877319 317.266846,251.606781 
	C318.358398,252.203384 319.449921,252.799973 320.923096,253.899857 
	C321.847778,254.382935 322.772430,254.866013 324.101624,255.871872 
	C326.036499,256.948944 327.971405,258.026001 330.224762,259.636841 
	C331.127899,260.114075 332.031006,260.591278 333.296387,261.589050 
	C334.384674,262.226654 335.472961,262.864288 337.006561,263.996613 
	C341.228180,266.439728 345.449768,268.882843 349.958130,271.755005 
	C350.276520,271.867889 350.594879,271.980774 351.289124,272.610535 
	C352.426086,273.180389 353.563019,273.750244 355.055573,274.772186 
	C355.585205,274.985260 356.114807,275.198364 357.153168,275.900208 
	C367.797089,281.042572 378.125824,280.908325 388.725525,273.911133 
	C396.202454,269.359894 400.755829,262.310577 405.462921,254.622162 
	C405.977631,253.749832 406.492340,252.877518 407.506287,251.730774 
	C407.742432,251.222092 407.978577,250.713394 408.659363,249.951630 
	C408.778107,249.639160 408.896851,249.326691 409.548584,248.701752 
	C410.052582,247.820679 410.556610,246.939590 411.616730,245.688965 
	C417.099121,237.465790 422.581512,229.242630 428.515839,220.776672 
	C428.730438,220.320114 428.945068,219.863541 429.700165,219.088806 
	C430.083862,218.369507 430.467560,217.650223 430.947998,216.920120 
	C430.947998,216.920120 430.914154,216.828842 431.452179,216.550858 
	C431.929108,215.681625 432.406036,214.812408 432.964783,213.940460 
	C432.964783,213.940460 432.929901,213.866425 433.466156,213.576141 
	C433.945587,212.700851 434.425018,211.825562 434.986481,210.961349 
	C434.986481,210.961349 434.939423,210.893280 435.481934,210.606491 
	C435.960815,209.722504 436.439667,208.838531 436.997040,207.975311 
	C436.997040,207.975311 436.946381,207.911850 437.503662,207.637131 
	C437.999115,206.755280 438.494568,205.873428 439.000000,205.000000 
	C439.000000,205.000000 438.990723,204.990234 439.543427,204.698776 
	C440.037445,203.802948 440.531494,202.907135 440.996796,202.001984 
	C440.996796,202.001984 441.014435,202.027252 441.594910,201.690140 
	C444.072723,197.794815 446.550537,193.899506 449.478699,189.747482 
	C449.695679,189.286209 449.912659,188.824951 450.632812,188.072998 
	C450.761597,187.717392 450.890411,187.361771 450.998260,187.000534 
	C450.998260,187.000534 451.010956,187.018967 451.564392,186.725067 
	C452.056427,185.824936 452.548492,184.924820 452.997772,184.002579 
	C452.997772,184.002579 453.028107,184.040436 453.570374,183.779800 
	C453.826447,183.249451 454.082520,182.719086 454.214417,182.175308 
	C454.214417,182.175308 454.275177,182.284454 454.836060,181.945999 
	C456.564941,179.309586 458.293823,176.673187 460.684814,173.979919 
	C461.127563,173.994797 461.570282,174.009659 462.343140,174.541748 
	C463.223969,175.037689 464.104828,175.533615 464.995880,175.995789 
	C464.995880,175.995789 464.967834,176.018280 465.310150,176.567032 
	C466.418060,177.198639 467.525940,177.830231 468.972351,177.996460 
	C468.857819,178.151199 468.743256,178.305954 468.959869,178.940475 
	C469.643341,179.285645 470.326813,179.630814 471.004150,180.004440 
	C471.004150,180.004440 471.028076,179.986343 471.259888,180.443054 
	C471.850494,180.751175 472.441132,181.059296 473.397766,181.836548 
	C473.586792,181.896484 473.775848,181.956421 474.256622,182.541428 
	C474.797821,182.773865 475.338989,183.006302 475.898834,183.136017 
	C475.898834,183.136017 475.805298,183.182388 476.062500,183.705688 
	C476.571564,183.972504 477.080627,184.239304 477.944153,184.481720 
	C477.944153,184.481720 477.589752,184.475601 477.842438,184.925568 
	C478.155090,185.053909 478.467712,185.182236 478.865387,185.118668 
	C478.865387,185.118668 478.726288,185.275848 479.020508,185.834000 
	C479.924622,186.348465 480.828735,186.862930 481.860657,187.162079 
	C481.860657,187.162079 481.682556,187.338074 482.017944,187.901352 
	C483.924072,189.057785 485.830200,190.214233 487.812286,191.250671 
	C487.812286,191.250671 487.678802,191.299149 487.926758,191.782318 
	C488.260803,191.898941 488.594879,192.015564 488.950867,192.040344 
	C488.950867,192.040344 488.869476,192.088257 489.076080,192.547195 
M128.968353,131.854370 
	C127.610306,131.497574 126.253075,130.833664 124.894096,130.830093 
	C104.645645,130.776886 84.396965,130.806824 64.148376,130.841599 
	C63.430355,130.842819 62.712772,131.096359 61.624146,131.302536 
	C62.652706,132.805908 63.387581,133.880020 64.254211,135.634140 
	C102.242966,199.396027 140.231720,263.157898 178.440887,327.289734 
	C179.267990,326.355652 179.746628,325.930481 180.086853,325.414154 
	C190.716431,309.281799 201.266098,293.096069 212.018723,277.046295 
	C213.729904,274.492096 212.758392,272.887939 211.522903,270.814911 
	C191.314148,236.906784 171.156998,202.967896 150.968323,169.047775 
	C143.739822,156.902740 136.458649,144.789078 128.968353,131.854370 
M366.398834,186.965759 
	C373.048737,177.144287 379.698639,167.322800 387.030121,156.494720 
	C375.715302,156.494720 365.758698,156.435562 355.804993,156.578491 
	C354.707245,156.594254 353.243195,157.503555 352.597046,158.443787 
	C346.771332,166.920776 341.090393,175.497253 335.061188,184.501175 
	C343.110901,189.134506 350.837616,193.581909 358.901489,198.223389 
	C361.418396,194.446548 363.709686,191.008270 366.398834,186.965759 
M302.560150,162.816513 
	C299.751129,167.073074 296.942078,171.329636 293.351166,176.770966 
	C304.339844,173.928497 313.921692,174.837067 323.347778,178.168259 
	C324.101532,178.434647 325.705231,177.733856 326.223846,176.996902 
	C329.904175,171.767212 333.404480,166.410828 337.603607,160.136322 
	C326.286407,160.136322 316.211853,160.075867 306.140411,160.225113 
	C305.074768,160.240906 304.027313,161.487671 302.560150,162.816513 
M211.698715,228.103577 
	C204.998276,238.027237 204.995850,238.028702 211.214508,248.319321 
	C212.074326,249.742126 212.988693,251.131958 213.848694,252.554626 
	C216.106720,256.289978 218.348679,260.035065 220.916885,264.308502 
	C235.330276,242.801544 249.118942,222.226791 263.384216,200.940887 
	C253.039566,200.940887 243.898178,201.083313 234.765305,200.867004 
	C231.368881,200.786560 229.242737,201.894836 227.404266,204.734619 
	C222.435349,212.409866 217.202362,219.914169 211.698715,228.103577 
z"/>
<path fill="#183162" opacity="1.000000" stroke="none" 
	d="
M129.201508,132.661087 
	C136.458649,144.789078 143.739822,156.902740 150.968323,169.047775 
	C171.156998,202.967896 191.314148,236.906784 211.522903,270.814911 
	C212.758392,272.887939 213.729904,274.492096 212.018723,277.046295 
	C201.266098,293.096069 190.716431,309.281799 180.086853,325.414154 
	C179.746628,325.930481 179.267990,326.355652 178.440887,327.289734 
	C140.231720,263.157898 102.242966,199.396027 64.446083,135.038635 
	C66.104027,130.514740 69.075455,132.217468 71.732697,132.480682 
	C76.584770,132.961304 81.726768,134.518646 86.252106,133.475769 
	C96.221542,131.178284 105.879875,131.863937 115.784439,133.265213 
	C120.141098,133.881592 124.722275,132.911087 129.201508,132.661087 
z"/>
<path fill="#07A392" opacity="1.000000" stroke="none" 
	d="
M386.806396,122.107079 
	C384.854279,120.701782 382.902191,119.296486 380.950073,117.891190 
	C380.897583,117.314384 380.845093,116.737587 380.792603,116.160782 
	C408.146667,106.723595 435.500732,97.286407 463.638000,87.881393 
	C469.956818,85.866150 475.492462,83.818733 481.028076,81.771317 
	C481.028076,81.771317 481.201752,81.685646 481.654175,81.780899 
	C482.702148,81.518875 483.297729,81.161606 483.893280,80.804344 
	C483.893280,80.804344 483.994263,80.923141 484.282898,80.930771 
	C485.405609,81.291000 486.239685,81.643616 487.015442,82.341957 
	C485.755157,84.251373 484.465607,85.755951 483.364319,87.387611 
	C466.385590,112.542778 449.410400,137.700439 432.527161,162.919632 
	C431.585785,164.325775 431.451050,166.271912 430.599060,168.006912 
	C429.106781,168.956268 427.637390,169.650940 426.858002,170.809692 
	C422.147614,177.813110 417.595032,184.922653 412.704498,192.140594 
	C411.944275,193.185913 411.469238,194.087357 410.695007,195.144775 
	C401.656677,207.754776 392.887177,220.187622 384.188110,232.669586 
	C377.271729,242.593735 364.650146,245.115509 354.332306,238.977554 
	C348.125122,235.284988 341.520111,232.261154 334.932404,228.637253 
	C327.072937,218.862610 308.109894,214.913025 299.259003,223.062897 
	C294.224426,227.698730 290.399414,233.648163 285.864166,239.300262 
	C284.220734,241.571487 282.712067,243.526352 281.271515,245.530212 
	C278.401672,249.522415 276.270508,254.450104 272.547180,257.323761 
	C267.690735,261.071960 261.584778,263.201233 255.798553,265.740662 
	C253.155411,264.629333 250.649811,263.978271 248.337601,262.908966 
	C247.114243,262.343201 245.589142,261.197968 245.323608,260.053650 
	C244.797028,257.784485 245.049164,255.334610 245.018875,252.610748 
	C245.901260,250.841064 246.683029,249.379364 247.596680,248.005371 
	C256.216492,235.042389 264.900543,222.121918 273.478790,209.131516 
	C278.492065,201.539673 284.213013,194.235107 292.818451,191.119797 
	C305.369324,186.576187 317.887421,187.326660 329.145996,195.687332 
	C331.143433,197.170639 333.156128,198.725418 335.381409,199.786591 
	C338.143829,201.103882 341.134827,201.941818 344.027100,202.986786 
	C344.027100,202.986771 344.003510,203.004227 344.048035,203.334595 
	C347.408936,205.435181 350.725311,207.205414 354.041656,208.975662 
	C354.041656,208.975662 354.005585,209.004730 354.048706,209.328033 
	C360.767059,216.253036 363.340363,216.056747 367.593384,208.870102 
	C369.441498,205.747253 371.744385,202.894577 373.613617,199.782761 
	C374.588348,198.160049 375.070251,196.241287 375.774750,194.456238 
	C375.774750,194.456238 375.781067,194.171890 376.245239,194.057739 
	C382.709076,188.271729 386.988037,181.492355 389.725525,173.720825 
	C389.725525,173.720825 389.813812,173.831100 390.098907,173.762024 
	C391.113037,173.039322 392.009094,172.499817 392.545563,171.714630 
	C398.764862,162.612076 404.975983,153.503159 411.091736,144.330872 
	C414.672577,138.960358 412.746185,135.549591 405.976593,135.013443 
	C405.976593,135.013443 405.997772,134.997330 405.948029,134.662842 
	C405.151520,134.009430 404.404724,133.690521 403.657959,133.371613 
	C403.657959,133.371613 403.813721,133.132889 403.741272,132.899261 
	C402.454224,132.104111 401.239563,131.542572 400.024933,130.981049 
	C400.024933,130.981049 400.001526,131.001373 399.974365,130.639893 
	C395.566925,127.554619 391.186676,124.830849 386.806396,122.107079 
z"/>
<path fill="#152650" opacity="1.000000" stroke="none" 
	d="
M266.973358,368.111816 
	C268.354950,366.565247 270.008606,365.185944 271.077545,363.447174 
	C289.121429,334.096710 307.091217,304.700714 325.084656,275.319244 
	C325.770874,274.198761 326.530090,273.122986 327.517426,271.629913 
	C343.739532,280.841125 358.299957,294.534363 380.311859,289.597382 
	C342.520111,352.591614 305.284058,414.659668 267.676758,477.346527 
	C266.593048,475.643890 265.757202,474.330719 265.100403,472.356079 
	C266.185944,469.656219 267.869141,467.622620 267.881714,465.578705 
	C268.054230,437.527405 268.040710,409.474579 267.949402,381.422516 
	C267.934967,376.984589 267.313934,372.548676 266.973358,368.111816 
z"/>
<path fill="#183161" opacity="1.000000" stroke="none" 
	d="
M266.825806,367.802704 
	C267.313934,372.548676 267.934967,376.984589 267.949402,381.422516 
	C268.040710,409.474579 268.054230,437.527405 267.881714,465.578705 
	C267.869141,467.622620 266.185944,469.656219 265.044922,472.024170 
	C255.494125,456.835083 246.109421,441.356995 236.876633,425.788788 
	C220.510941,398.193176 204.309372,370.499908 187.840073,342.966522 
	C185.630753,339.272980 185.487091,336.494415 188.139084,333.145477 
	C192.144623,328.087311 195.868256,322.805939 200.082794,317.172089 
	C200.614426,316.416351 200.774979,316.107910 200.935532,315.799469 
	C201.347534,315.224365 201.759537,314.649261 202.801056,313.983795 
	C204.839249,312.807129 206.105911,311.364166 207.695160,310.731323 
	C209.403091,310.051208 211.511475,309.636810 213.272064,309.984039 
	C216.860779,310.691772 220.333267,311.988800 223.853638,313.043030 
	C234.893402,326.761566 245.980118,340.442719 256.945099,354.220734 
	C260.358856,358.510254 263.443115,363.061920 266.825806,367.802704 
z"/>
<path fill="#09817C" opacity="1.000000" stroke="none" 
	d="
M430.940826,167.966690 
	C431.451050,166.271912 431.585785,164.325775 432.527161,162.919632 
	C449.410400,137.700439 466.385590,112.542778 483.364319,87.387611 
	C484.465607,85.755951 485.755157,84.251373 487.248108,82.442459 
	C488.149445,82.478401 488.759735,82.759583 489.370056,83.040771 
	C489.560974,86.079979 489.751892,89.119179 489.611023,92.929352 
	C489.193573,99.595871 489.038788,105.492088 489.096954,111.386215 
	C489.105682,112.269653 490.111969,113.143242 490.656830,114.021378 
	C490.748199,114.787735 490.839600,115.554100 490.599976,117.016426 
	C490.182068,122.100243 489.965668,126.491577 490.083435,130.873917 
	C490.120972,132.270889 491.045898,133.643997 491.564758,135.028015 
	C491.673981,136.749939 491.783142,138.471848 491.573975,140.948792 
	C491.176941,147.920410 491.033722,154.137634 491.091553,160.352982 
	C491.099884,161.247940 492.075897,162.133896 492.604065,163.024002 
	C492.720398,164.758881 492.836731,166.493774 492.621765,168.958160 
	C492.674561,173.128677 493.058563,176.569687 493.442566,180.010696 
	C493.591400,183.060455 493.740234,186.110199 493.579651,189.868408 
	C492.350128,191.458054 491.429993,192.339233 490.509857,193.220413 
	C490.509857,193.220413 490.173462,193.171585 489.958069,192.819397 
	C489.508606,192.209671 489.217529,192.083359 488.869476,192.088257 
	C488.869476,192.088257 488.950867,192.040344 488.824738,191.831635 
	C488.358673,191.515015 488.018738,191.407074 487.678802,191.299149 
	C487.678802,191.299149 487.812286,191.250671 487.739929,190.950012 
	C485.672546,189.545593 483.677551,188.441833 481.682556,187.338074 
	C481.682556,187.338074 481.860657,187.162079 481.759033,186.910553 
	C480.680359,186.197983 479.703339,185.736923 478.726288,185.275848 
	C478.726288,185.275848 478.865387,185.118668 478.755249,184.928955 
	C478.293304,184.651367 477.941528,184.563477 477.589752,184.475601 
	C477.589752,184.475601 477.944153,184.481720 477.760559,184.151672 
	C476.986389,183.608566 476.395844,183.395477 475.805298,183.182388 
	C475.805298,183.182388 475.898834,183.136017 475.781158,182.890656 
	C475.097290,182.435654 474.531128,182.226013 473.964935,182.016373 
	C473.775848,181.956421 473.586792,181.896484 473.133667,181.346405 
	C472.255737,180.566299 471.641907,180.276321 471.028076,179.986343 
	C471.028076,179.986343 471.004150,180.004440 470.947144,179.647339 
	C470.136353,179.013733 469.382507,178.737228 468.628693,178.460709 
	C468.743256,178.305954 468.857819,178.151199 468.801331,177.858032 
	C467.409515,177.152496 466.188660,176.585388 464.967834,176.018280 
	C464.967834,176.018280 464.995880,175.995789 464.968353,175.688751 
	C463.964905,174.929321 462.988953,174.476929 462.013031,174.024536 
	C461.570282,174.009659 461.127563,173.994797 460.003876,174.028412 
	C457.640350,176.812759 455.957764,179.548615 454.275177,182.284454 
	C454.275177,182.284454 454.214417,182.175308 453.961548,182.256424 
	C453.481812,182.905167 453.254944,183.472794 453.028076,184.040436 
	C453.028107,184.040436 452.997772,184.002579 452.670044,184.054565 
	C451.898529,185.077362 451.454742,186.048157 451.010956,187.018967 
	C451.010956,187.018967 450.998260,187.000534 450.760132,187.151978 
	C450.391235,187.656845 450.260437,188.010269 450.129639,188.363678 
	C449.912659,188.824951 449.695679,189.286209 448.903931,189.906326 
	C445.890930,194.052521 443.452667,198.039886 441.014435,202.027252 
	C441.014435,202.027252 440.996796,202.001984 440.664795,202.050476 
	C439.885406,203.062714 439.438049,204.026474 438.990723,204.990234 
	C438.990723,204.990234 439.000000,205.000000 438.657043,205.044159 
	C437.858185,206.029495 437.402283,206.970673 436.946381,207.911850 
	C436.946381,207.911850 436.997040,207.975311 436.626587,208.024887 
	C435.817230,209.014069 435.378326,209.953674 434.939423,210.893280 
	C434.939423,210.893280 434.986481,210.961349 434.617432,211.017212 
	C433.808899,212.004181 433.369385,212.935303 432.929901,213.866425 
	C432.929901,213.866425 432.964783,213.940460 432.599731,214.004242 
	C431.794525,214.988312 431.354340,215.908569 430.914124,216.828827 
	C430.914154,216.828842 430.947998,216.920120 430.564209,217.007843 
	C429.840179,217.866028 429.499908,218.636505 429.159668,219.406982 
	C428.945068,219.863541 428.730438,220.320114 427.937683,220.924561 
	C424.582092,224.394592 421.804657,227.716751 419.018555,230.642487 
	C419.251770,229.132690 419.115417,227.621292 419.798523,226.972198 
	C423.518311,223.437500 421.930786,220.459961 419.032288,217.640167 
	C417.084412,215.745178 414.929352,214.063126 412.867004,212.285828 
	C413.381531,212.158707 413.896027,212.031601 414.410553,211.904495 
	C415.420319,205.221832 416.430115,198.539169 417.537323,191.211731 
	C425.326996,189.238693 429.884094,197.146362 437.381287,199.704865 
	C439.719391,195.825668 442.531311,191.568787 444.811005,187.043762 
	C445.283936,186.105011 444.081757,183.927872 443.125061,182.748642 
	C441.349945,180.560669 439.108673,178.757446 437.221069,176.651077 
	C436.404144,175.739395 435.253143,174.257446 435.505066,173.403748 
	C436.796356,169.027740 433.580261,168.813904 430.940826,167.966690 
z"/>
<path fill="#0EA191" opacity="1.000000" stroke="none" 
	d="
M366.199890,187.267868 
	C363.709686,191.008270 361.418396,194.446548 358.901489,198.223389 
	C350.837616,193.581909 343.110901,189.134506 335.061188,184.501175 
	C341.090393,175.497253 346.771332,166.920776 352.597046,158.443787 
	C353.243195,157.503555 354.707245,156.594254 355.804993,156.578491 
	C365.758698,156.435562 375.715302,156.494720 387.030121,156.494720 
	C379.698639,167.322800 373.048737,177.144287 366.199890,187.267868 
z"/>
<path fill="#057C7A" opacity="1.000000" stroke="none" 
	d="
M286.029724,239.006058 
	C290.399414,233.648163 294.224426,227.698730 299.259003,223.062897 
	C308.109894,214.913025 327.072937,218.862610 334.650330,228.837097 
	C332.110596,231.974274 329.656342,234.580917 327.280640,237.257278 
	C323.819214,241.156769 320.414337,245.106461 316.691956,249.055603 
	C315.938843,249.390762 315.479095,249.705078 315.019379,250.019394 
	C315.019379,250.019394 314.573700,250.092087 314.003235,250.086060 
	C311.954590,251.717773 310.476410,253.355530 308.614960,254.994995 
	C303.444183,251.232254 298.137512,247.945999 294.064117,243.523743 
	C291.624176,240.874878 289.743164,238.735489 286.029724,239.006058 
z"/>
<path fill="#096A72" opacity="1.000000" stroke="none" 
	d="
M242.066467,298.264282 
	C241.968399,298.571381 241.771454,298.789032 240.916351,298.964539 
	C239.909790,299.016266 239.462463,299.020630 238.670380,298.981354 
	C236.686295,297.595001 235.109619,296.165161 233.392639,294.930389 
	C230.934509,293.162689 228.373871,291.537537 226.029480,289.561646 
	C229.120422,286.693390 231.859756,283.868896 234.994080,281.586914 
	C241.887238,276.568237 248.979980,271.823639 256.146820,267.273376 
	C260.970825,270.754791 261.318512,274.868469 258.974335,279.619232 
	C257.739319,282.122131 256.290436,284.587463 255.552765,287.240692 
	C255.150925,288.685974 255.463776,291.325714 256.434784,291.986877 
	C260.972137,295.076477 260.262451,298.767731 258.555450,302.902435 
	C257.873993,304.553040 257.500946,306.330963 256.691162,307.923157 
	C255.782562,307.703644 255.170319,307.611847 254.558075,307.520050 
	C254.558075,307.520050 254.543396,307.433014 254.626068,307.070374 
	C252.992279,304.954956 251.275803,303.202148 249.559341,301.449341 
	C249.559341,301.449341 249.750946,301.300629 249.668564,301.062622 
	C249.281082,300.651550 248.975983,300.478516 248.670883,300.305450 
	C248.670883,300.305450 248.987381,300.057343 248.888062,299.818604 
	C247.798874,298.750214 246.809006,297.920563 245.819138,297.090942 
	C245.412933,297.050507 245.006744,297.010101 244.099396,296.754883 
	C243.087646,297.114807 242.577057,297.689545 242.066467,298.264282 
z"/>
<path fill="#17A293" opacity="1.000000" stroke="none" 
	d="
M302.765778,162.489929 
	C304.027313,161.487671 305.074768,160.240906 306.140411,160.225113 
	C316.211853,160.075867 326.286407,160.136322 337.603607,160.136322 
	C333.404480,166.410828 329.904175,171.767212 326.223846,176.996902 
	C325.705231,177.733856 324.101532,178.434647 323.347778,178.168259 
	C313.921692,174.837067 304.339844,173.928497 293.351166,176.770966 
	C296.942078,171.329636 299.751129,167.073074 302.765778,162.489929 
z"/>
<path fill="#2B9C91" opacity="1.000000" stroke="none" 
	d="
M343.839355,202.706955 
	C341.134827,201.941818 338.143829,201.103882 335.381409,199.786591 
	C333.156128,198.725418 331.143433,197.170639 329.145996,195.687332 
	C317.887421,187.326660 305.369324,186.576187 292.818451,191.119797 
	C284.213013,194.235107 278.492065,201.539673 273.478790,209.131516 
	C264.900543,222.121918 256.216492,235.042389 247.596680,248.005371 
	C246.683029,249.379364 245.901260,250.841064 244.721283,252.774689 
	C237.028061,264.215027 229.662766,275.136627 222.324814,286.076569 
	C221.125656,287.864349 219.445450,289.812958 222.830414,291.322571 
	C219.064056,295.386230 215.440857,299.152588 211.538666,303.071106 
	C209.600677,304.531403 207.941681,305.839539 206.282684,307.147644 
	C212.475739,297.706116 218.598526,288.217560 224.875534,278.832184 
	C241.266083,254.325043 257.718292,229.859131 274.158173,205.385025 
	C280.836334,195.443253 289.419098,188.371155 301.735107,186.574020 
	C309.660034,185.417633 317.010468,186.844406 323.878052,190.729828 
	C330.542114,194.500076 337.066101,198.517975 343.839355,202.706955 
z"/>
<path fill="#299E91" opacity="1.000000" stroke="none" 
	d="
M211.886429,227.794937 
	C217.202362,219.914169 222.435349,212.409866 227.404266,204.734619 
	C229.242737,201.894836 231.368881,200.786560 234.765305,200.867004 
	C243.898178,201.083313 253.039566,200.940887 263.384216,200.940887 
	C249.118942,222.226791 235.330276,242.801544 220.916885,264.308502 
	C218.348679,260.035065 216.106720,256.289978 213.848694,252.554626 
	C212.988693,251.131958 212.074326,249.742126 211.214508,248.319321 
	C204.995850,238.028702 204.998276,238.027237 211.886429,227.794937 
M252.849350,213.313019 
	C254.853561,210.182297 256.857788,207.051575 259.414764,203.057388 
	C249.776581,203.057388 241.190231,202.958176 232.611771,203.173676 
	C231.442001,203.203064 229.990906,204.582977 229.213364,205.711807 
	C222.372360,215.643631 215.605606,225.628052 208.974213,235.700485 
	C208.294144,236.733444 208.048416,238.775406 208.612228,239.783890 
	C211.683167,245.276688 215.021088,250.623672 218.369537,255.956543 
	C220.229431,258.918701 222.191986,258.719452 224.075409,255.850067 
	C226.801132,251.697449 229.548538,247.558380 232.339188,243.449173 
	C239.030304,233.596558 245.752014,223.764709 252.849350,213.313019 
z"/>
<path fill="#0D546B" opacity="1.000000" stroke="none" 
	d="
M211.817642,302.918915 
	C215.440857,299.152588 219.064056,295.386230 223.122345,291.202911 
	C224.323944,290.474457 225.090485,290.162994 225.857010,289.851501 
	C228.373871,291.537537 230.934509,293.162689 233.392639,294.930389 
	C235.109619,296.165161 236.686295,297.595001 238.739075,299.326263 
	C239.227661,299.937134 239.302811,300.159485 239.377945,300.381805 
	C239.377945,300.381805 239.268402,300.316956 239.030334,300.323761 
	C238.566727,300.636902 238.341202,300.943237 238.115662,301.249573 
	C238.115662,301.249573 238.096802,301.101227 237.906555,301.183533 
	C237.485626,301.536774 237.254959,301.807709 237.024292,302.078644 
	C236.810654,302.344086 236.597015,302.609558 235.772415,302.941254 
	C234.451965,303.709198 233.742477,304.410919 233.032990,305.112640 
	C232.590591,305.404266 232.148193,305.695892 231.170471,306.127350 
	C230.452713,306.576294 230.270294,306.885376 230.087875,307.194489 
	C230.087875,307.194489 230.089325,307.098022 229.740082,307.080780 
	C226.998596,306.745972 224.553635,306.640289 222.226456,306.061249 
	C218.713699,305.187225 215.283142,303.982880 211.817642,302.918915 
z"/>
<path fill="#2C797B" opacity="1.000000" stroke="none" 
	d="
M254.668640,307.830719 
	C255.170319,307.611847 255.782562,307.703644 256.842468,308.218384 
	C258.537720,309.968994 259.848755,311.243103 261.021179,312.634033 
	C264.953186,317.298950 266.551086,317.506012 269.859711,312.681274 
	C283.001465,293.517517 295.967255,274.233032 308.998230,254.993286 
	C310.476410,253.355530 311.954590,251.717773 313.777466,250.083481 
	C298.256226,274.037659 282.390259,297.988342 266.156128,322.494873 
	C262.147156,317.437042 258.463165,312.789215 254.668640,307.830719 
z"/>
<path fill="#124463" opacity="1.000000" stroke="none" 
	d="
M211.538666,303.071106 
	C215.283142,303.982880 218.713699,305.187225 222.226456,306.061249 
	C224.553635,306.640289 226.998596,306.745972 229.784668,307.099152 
	C228.081467,308.868408 225.984421,310.602051 223.870514,312.689392 
	C220.333267,311.988800 216.860779,310.691772 213.272064,309.984039 
	C211.511475,309.636810 209.403091,310.051208 207.695160,310.731323 
	C206.105911,311.364166 204.839249,312.807129 203.057144,313.894836 
	C203.316208,312.416992 203.948715,310.937744 204.798065,309.133972 
	C205.014893,308.809387 205.028076,308.900299 205.028076,308.900299 
	C205.289749,308.498260 205.551437,308.096222 206.047897,307.420929 
	C207.941681,305.839539 209.600677,304.531403 211.538666,303.071106 
z"/>
<path fill="#152A52" opacity="1.000000" stroke="none" 
	d="
M129.084930,132.257721 
	C124.722275,132.911087 120.141098,133.881592 115.784439,133.265213 
	C105.879875,131.863937 96.221542,131.178284 86.252106,133.475769 
	C81.726768,134.518646 76.584770,132.961304 71.732697,132.480682 
	C69.075455,132.217468 66.104027,130.514740 64.380203,134.698624 
	C63.387581,133.880020 62.652706,132.805908 61.624146,131.302536 
	C62.712772,131.096359 63.430355,130.842819 64.148376,130.841599 
	C84.396965,130.806824 104.645645,130.776886 124.894096,130.830093 
	C126.253075,130.833664 127.610306,131.497574 129.084930,132.257721 
z"/>
<path fill="#2B9C91" opacity="1.000000" stroke="none" 
	d="
M406.158997,135.303925 
	C412.746185,135.549591 414.672577,138.960358 411.091736,144.330872 
	C404.975983,153.503159 398.764862,162.612076 392.545563,171.714630 
	C392.009094,172.499817 391.113037,173.039322 390.030823,173.743286 
	C395.108459,165.510437 400.543640,157.230087 405.967804,148.942566 
	C407.860931,146.050140 409.726990,143.140030 411.887939,139.801559 
	C409.908203,138.299896 408.124786,136.947159 406.158997,135.303925 
z"/>
<path fill="#2B9C91" opacity="1.000000" stroke="none" 
	d="
M375.477386,194.638596 
	C375.070251,196.241287 374.588348,198.160049 373.613617,199.782761 
	C371.744385,202.894577 369.441498,205.747253 367.593384,208.870102 
	C363.340363,216.056747 360.767059,216.253036 354.055237,209.305939 
	C356.649231,210.281998 359.279755,211.603470 362.303467,213.122452 
	C366.641296,206.957062 370.910675,200.889008 375.477386,194.638596 
z"/>
<path fill="#2C797B" opacity="1.000000" stroke="none" 
	d="
M419.027222,231.038910 
	C421.804657,227.716751 424.582092,224.394592 427.711731,221.045959 
	C422.581512,229.242630 417.099121,237.465790 411.270386,245.810196 
	C410.924072,245.931427 410.787140,245.804703 410.852295,245.445145 
	C412.290741,242.399887 413.664093,239.714188 415.297394,236.829498 
	C416.713989,234.766647 417.870605,232.902771 419.027222,231.038910 
z"/>
<path fill="#2C797B" opacity="1.000000" stroke="none" 
	d="
M388.053162,274.054443 
	C378.125824,280.908325 367.797089,281.042572 356.998138,275.538452 
	C356.843109,275.176666 357.040955,274.941162 357.438110,274.965027 
	C365.712677,277.762024 373.614471,279.576080 381.771606,275.968048 
	C383.721100,275.105774 385.787476,274.507660 387.863281,273.854767 
	C387.926453,273.921448 388.053162,274.054443 388.053162,274.054443 
z"/>
<path fill="#2C797B" opacity="1.000000" stroke="none" 
	d="
M404.934479,254.941116 
	C400.755829,262.310577 396.202454,269.359894 388.389343,273.982788 
	C388.053162,274.054443 387.926453,273.921448 387.962341,273.570251 
	C388.343506,272.487488 388.688812,271.755920 389.378235,270.985229 
	C392.829285,267.304291 395.936249,263.662476 399.337677,259.866516 
	C401.331177,258.057526 403.030243,256.402710 404.780579,254.796234 
	C404.831848,254.844543 404.934479,254.941116 404.934479,254.941116 
z"/>
<path fill="#2B9C91" opacity="1.000000" stroke="none" 
	d="
M389.428833,173.865860 
	C386.988037,181.492355 382.709076,188.271729 376.362915,193.977905 
	C380.388336,187.345108 384.760254,180.678009 389.428833,173.865860 
z"/>
<path fill="#2C797B" opacity="1.000000" stroke="none" 
	d="
M490.765503,113.562927 
	C490.111969,113.143242 489.105682,112.269653 489.096954,111.386215 
	C489.038788,105.492088 489.193573,99.595871 489.538208,93.384521 
	C490.156219,99.747314 490.515198,106.425896 490.765503,113.562927 
z"/>
<path fill="#2C797B" opacity="1.000000" stroke="none" 
	d="
M492.707581,162.564819 
	C492.075897,162.133896 491.099884,161.247940 491.091553,160.352982 
	C491.033722,154.137634 491.176941,147.920410 491.498535,141.375427 
	C492.098022,148.066589 492.454559,155.086121 492.707581,162.564819 
z"/>
<path fill="#2C797B" opacity="1.000000" stroke="none" 
	d="
M491.661560,134.568130 
	C491.045898,133.643997 490.120972,132.270889 490.083435,130.873917 
	C489.965668,126.491577 490.182068,122.100243 490.526825,117.397903 
	C491.109222,122.758354 491.433807,128.433304 491.661560,134.568130 
z"/>
<path fill="#2B9C91" opacity="1.000000" stroke="none" 
	d="
M386.988342,122.392380 
	C391.186676,124.830849 395.566925,127.554619 399.981812,130.627167 
	C395.734375,128.209854 391.452362,125.443764 386.988342,122.392380 
z"/>
<path fill="#2C797B" opacity="1.000000" stroke="none" 
	d="
M441.304688,201.858704 
	C443.452667,198.039886 445.890930,194.052521 448.678772,190.034683 
	C446.550537,193.899506 444.072723,197.794815 441.304688,201.858704 
z"/>
<path fill="#2C797B" opacity="1.000000" stroke="none" 
	d="
M349.671387,271.325958 
	C345.449768,268.882843 341.228180,266.439728 336.903076,263.613647 
	C336.799591,263.230713 337.039032,262.960449 337.397583,262.983704 
	C339.498444,263.684082 341.240692,264.361206 343.140198,265.331970 
	C345.549591,267.398285 347.801788,269.170929 349.958801,271.039673 
	C349.863647,271.135742 349.671387,271.325958 349.671387,271.325958 
z"/>
<path fill="#2C797B" opacity="1.000000" stroke="none" 
	d="
M480.625214,81.795448 
	C475.492462,83.818733 469.956818,85.866150 464.005524,87.864014 
	C469.134003,85.816162 474.678192,83.817871 480.625214,81.795448 
z"/>
<path fill="#2C797B" opacity="1.000000" stroke="none" 
	d="
M493.558167,179.575699 
	C493.058563,176.569687 492.674561,173.128677 492.546722,169.388458 
	C493.093201,172.439743 493.383453,175.790222 493.558167,179.575699 
z"/>
<path fill="#2B9C91" opacity="1.000000" stroke="none" 
	d="
M353.865295,208.688522 
	C350.725311,207.205414 347.408936,205.435181 344.050690,203.320511 
	C347.235504,204.784515 350.462189,206.592941 353.865295,208.688522 
z"/>
<path fill="#2C797B" opacity="1.000000" stroke="none" 
	d="
M454.555603,182.115234 
	C455.957764,179.548615 457.640350,176.812759 459.672821,174.056854 
	C458.293823,176.673187 456.564941,179.309586 454.555603,182.115234 
z"/>
<path fill="#2C797B" opacity="1.000000" stroke="none" 
	d="
M489.495117,82.680389 
	C488.759735,82.759583 488.149445,82.478401 487.306458,82.096725 
	C486.239685,81.643616 485.405609,81.291000 484.216553,80.889786 
	C486.001801,80.474876 489.233154,75.859543 489.495117,82.680389 
z"/>
<path fill="#2C797B" opacity="1.000000" stroke="none" 
	d="
M490.677002,193.494568 
	C491.429993,192.339233 492.350128,191.458054 493.499512,190.322327 
	C493.928497,191.765991 494.128143,193.464188 494.428223,196.016235 
	C492.679016,194.919342 491.761597,194.344025 490.677002,193.494568 
z"/>
<path fill="#2C797B" opacity="1.000000" stroke="none" 
	d="
M249.655899,301.763855 
	C251.275803,303.202148 252.992279,304.954956 254.583374,307.059265 
	C252.889481,305.633301 251.320969,303.855835 249.655899,301.763855 
z"/>
<path fill="#2C797B" opacity="1.000000" stroke="none" 
	d="
M329.906281,259.103058 
	C327.971405,258.026001 326.036499,256.948944 323.991882,255.501190 
	C323.882111,255.130508 324.066528,254.911438 324.438721,254.952606 
	C326.518036,255.341736 328.225220,255.689682 329.948120,256.387451 
	C330.036407,257.430756 330.108978,258.124237 330.112427,258.888794 
	C330.043304,258.959839 329.906281,259.103058 329.906281,259.103058 
z"/>
<path fill="#2C797B" opacity="1.000000" stroke="none" 
	d="
M481.850250,187.619720 
	C483.677551,188.441833 485.672546,189.545593 487.701935,191.010010 
	C485.830200,190.214233 483.924072,189.057785 481.850250,187.619720 
z"/>
<path fill="#2C797B" opacity="1.000000" stroke="none" 
	d="
M245.921539,297.390045 
	C246.809006,297.920563 247.798874,298.750214 248.729187,299.945892 
	C247.787750,299.437683 246.905853,298.563416 245.921539,297.390045 
z"/>
<path fill="#2C797B" opacity="1.000000" stroke="none" 
	d="
M462.178101,174.283142 
	C462.988953,174.476929 463.964905,174.929321 464.963257,175.705643 
	C464.104828,175.533615 463.223969,175.037689 462.178101,174.283142 
z"/>
<path fill="#2C797B" opacity="1.000000" stroke="none" 
	d="
M320.541473,253.396561 
	C319.449921,252.799973 318.358398,252.203384 317.162048,251.274200 
	C317.057251,250.941620 317.206879,250.788086 317.545990,250.853287 
	C318.577820,250.951401 319.270508,250.984299 320.078430,251.269531 
	C320.475006,251.998764 320.756348,252.475693 320.914551,253.064636 
	C320.791443,253.176666 320.541473,253.396561 320.541473,253.396561 
z"/>
<path fill="#2C797B" opacity="1.000000" stroke="none" 
	d="
M336.680420,263.366302 
	C335.472961,262.864288 334.384674,262.226654 333.178314,261.261505 
	C333.060242,260.933960 333.186005,260.799072 333.512390,260.863953 
	C334.887543,261.288177 335.936310,261.647522 336.993225,262.245544 
	C337.001434,262.484253 337.039032,262.960449 337.039032,262.960449 
	C337.039032,262.960449 336.799591,263.230713 336.680420,263.366302 
z"/>
<path fill="#2C797B" opacity="1.000000" stroke="none" 
	d="
M465.138977,176.292664 
	C466.188660,176.585388 467.409515,177.152496 468.632080,178.090714 
	C467.525940,177.830231 466.418060,177.198639 465.138977,176.292664 
z"/>
<path fill="#2B9C91" opacity="1.000000" stroke="none" 
	d="
M400.186951,131.262177 
	C401.239563,131.542572 402.454224,132.104111 403.689697,133.032135 
	C402.590027,132.780182 401.469513,132.161728 400.186951,131.262177 
z"/>
<path fill="#2C797B" opacity="1.000000" stroke="none" 
	d="
M332.997192,261.001221 
	C332.031006,260.591278 331.127899,260.114075 330.065521,259.369934 
	C329.906281,259.103058 330.043304,258.959839 330.433594,258.953156 
	C331.611267,259.563995 332.398621,260.181549 333.186005,260.799072 
	C333.186005,260.799072 333.060242,260.933960 332.997192,261.001221 
z"/>
<path fill="#2C797B" opacity="1.000000" stroke="none" 
	d="
M354.699982,274.320068 
	C353.563019,273.750244 352.426086,273.180389 351.155090,272.287659 
	C351.021027,271.964813 351.125549,271.833344 351.440430,271.911499 
	C352.855286,272.633423 353.955261,273.277191 354.968018,274.022186 
	C354.880829,274.123413 354.699982,274.320068 354.699982,274.320068 
z"/>
<path fill="#124463" opacity="1.000000" stroke="none" 
	d="
M233.330215,305.041351 
	C233.742477,304.410919 234.451965,303.709198 235.509705,302.982574 
	C235.114441,303.628448 234.370941,304.299255 233.330215,305.041351 
z"/>
<path fill="#2C797B" opacity="1.000000" stroke="none" 
	d="
M323.789612,255.239807 
	C322.772430,254.866013 321.847778,254.382935 320.732300,253.648209 
	C320.541473,253.396561 320.791443,253.176666 321.225952,253.112823 
	C322.462494,253.669785 323.264496,254.290619 324.066528,254.911438 
	C324.066528,254.911438 323.882111,255.130508 323.789612,255.239807 
z"/>
<path fill="#2C797B" opacity="1.000000" stroke="none" 
	d="
M407.007050,252.005203 
	C406.492340,252.877518 405.977631,253.749832 405.198700,254.781647 
	C404.934479,254.941116 404.831848,254.844543 404.862701,254.482697 
	C405.520325,253.341461 406.147125,252.562088 406.832092,251.838425 
	C406.890289,251.894150 407.007050,252.005203 407.007050,252.005203 
z"/>
<path fill="#2C797B" opacity="1.000000" stroke="none" 
	d="
M435.210693,210.749878 
	C435.378326,209.953674 435.817230,209.014069 436.587341,208.014496 
	C436.439667,208.838531 435.960815,209.722504 435.210693,210.749878 
z"/>
<path fill="#2C797B" opacity="1.000000" stroke="none" 
	d="
M439.267090,204.844513 
	C439.438049,204.026474 439.885406,203.062714 440.679138,202.055145 
	C440.531494,202.907135 440.037445,203.802948 439.267090,204.844513 
z"/>
<path fill="#2C797B" opacity="1.000000" stroke="none" 
	d="
M451.287659,186.872009 
	C451.454742,186.048157 451.898529,185.077362 452.691437,184.065628 
	C452.548492,184.924820 452.056427,185.824936 451.287659,186.872009 
z"/>
<path fill="#2C797B" opacity="1.000000" stroke="none" 
	d="
M478.873413,185.554932 
	C479.703339,185.736923 480.680359,186.197983 481.695129,187.018219 
	C480.828735,186.862930 479.924622,186.348465 478.873413,185.554932 
z"/>
<path fill="#2C797B" opacity="1.000000" stroke="none" 
	d="
M437.225037,207.774490 
	C437.402283,206.970673 437.858185,206.029495 438.652039,205.039948 
	C438.494568,205.873428 437.999115,206.755280 437.225037,207.774490 
z"/>
<path fill="#2C797B" opacity="1.000000" stroke="none" 
	d="
M433.198029,213.721283 
	C433.369385,212.935303 433.808899,212.004181 434.576416,211.011673 
	C434.425018,211.825562 433.945587,212.700851 433.198029,213.721283 
z"/>
<path fill="#2C797B" opacity="1.000000" stroke="none" 
	d="
M431.183167,216.689850 
	C431.354340,215.908569 431.794525,214.988312 432.558838,214.005615 
	C432.406036,214.812408 431.929108,215.681625 431.183167,216.689850 
z"/>
<path fill="#2C797B" opacity="1.000000" stroke="none" 
	d="
M410.992340,245.994965 
	C410.556610,246.939590 410.052582,247.820679 409.225342,248.816803 
	C408.902130,248.931854 408.787689,248.850845 408.849365,248.523270 
	C409.536377,247.398697 410.161743,246.601700 410.787109,245.804688 
	C410.787140,245.804703 410.924072,245.931427 410.992340,245.994965 
z"/>
<path fill="#2C797B" opacity="1.000000" stroke="none" 
	d="
M429.429932,219.247894 
	C429.499908,218.636505 429.840179,217.866028 430.515869,217.013245 
	C430.467560,217.650223 430.083862,218.369507 429.429932,219.247894 
z"/>
<path fill="#2C797B" opacity="1.000000" stroke="none" 
	d="
M242.361893,298.205200 
	C242.577057,297.689545 243.087646,297.114807 243.793243,296.755554 
	C243.544586,297.362762 243.100952,297.754456 242.361893,298.205200 
z"/>
<path fill="#2B9C91" opacity="1.000000" stroke="none" 
	d="
M403.786011,133.643951 
	C404.404724,133.690521 405.151520,134.009430 405.944092,134.674896 
	C405.297974,134.653091 404.606049,134.284698 403.786011,133.643951 
z"/>
<path fill="#2C797B" opacity="1.000000" stroke="none" 
	d="
M315.204956,250.230286 
	C315.479095,249.705078 315.938843,249.390762 316.703552,249.351166 
	C317.074677,250.013290 317.140778,250.400681 317.206879,250.788086 
	C317.206879,250.788086 317.057251,250.941620 316.982544,251.018494 
	C316.402069,250.877319 315.896332,250.659256 315.204956,250.230286 
z"/>
<path fill="#2C797B" opacity="1.000000" stroke="none" 
	d="
M468.794281,178.700592 
	C469.382507,178.737228 470.136353,179.013733 470.950226,179.633118 
	C470.326813,179.630814 469.643341,179.285645 468.794281,178.700592 
z"/>
<path fill="#2C797B" opacity="1.000000" stroke="none" 
	d="
M471.143982,180.214691 
	C471.641907,180.276321 472.255737,180.566299 472.950653,181.111847 
	C472.441132,181.059296 471.850494,180.751175 471.143982,180.214691 
z"/>
<path fill="#124463" opacity="1.000000" stroke="none" 
	d="
M239.646530,300.290771 
	C239.302811,300.159485 239.227661,299.937134 239.083817,299.369904 
	C239.462463,299.020630 239.909790,299.016266 240.692917,298.996002 
	C240.657516,299.386658 240.286316,299.793182 239.646530,300.290771 
z"/>
<path fill="#2C797B" opacity="1.000000" stroke="none" 
	d="
M474.110779,182.278900 
	C474.531128,182.226013 475.097290,182.435654 475.771851,182.942017 
	C475.338989,183.006302 474.797821,182.773865 474.110779,182.278900 
z"/>
<path fill="#2C797B" opacity="1.000000" stroke="none" 
	d="
M475.933899,183.444031 
	C476.395844,183.395477 476.986389,183.608566 477.583313,184.163879 
	C477.080627,184.239304 476.571564,183.972504 475.933899,183.444031 
z"/>
<path fill="#2C797B" opacity="1.000000" stroke="none" 
	d="
M453.299225,183.910110 
	C453.254944,183.472794 453.481812,182.905167 454.023621,182.263123 
	C454.082520,182.719086 453.826447,183.249451 453.299225,183.910110 
z"/>
<path fill="#2C797B" opacity="1.000000" stroke="none" 
	d="
M356.743774,275.294067 
	C356.114807,275.198364 355.585205,274.985260 354.877777,274.546143 
	C354.699982,274.320068 354.880829,274.123413 355.254944,274.069153 
	C356.099701,274.323608 356.570343,274.632385 357.040955,274.941162 
	C357.040955,274.941162 356.843109,275.176666 356.743774,275.294067 
z"/>
<path fill="#2C797B" opacity="1.000000" stroke="none" 
	d="
M483.536621,80.817062 
	C483.297729,81.161606 482.702148,81.518875 481.726654,81.845108 
	C481.957794,81.485977 482.568848,81.157875 483.536621,80.817062 
z"/>
<path fill="#2C797B" opacity="1.000000" stroke="none" 
	d="
M408.214722,250.204712 
	C407.978577,250.713394 407.742432,251.222092 407.256653,251.867981 
	C407.007050,252.005203 406.890289,251.894150 406.919128,251.572876 
	C407.267639,250.806168 407.587341,250.360718 407.984375,249.987167 
	C408.061768,250.059052 408.214752,250.204712 408.214722,250.204712 
z"/>
<path fill="#124463" opacity="1.000000" stroke="none" 
	d="
M200.648041,315.903168 
	C200.774979,316.107910 200.614426,316.416351 200.233185,316.872070 
	C200.128510,316.681824 200.244522,316.344360 200.648041,315.903168 
z"/>
<path fill="#124463" opacity="1.000000" stroke="none" 
	d="
M237.298309,302.021179 
	C237.254959,301.807709 237.485626,301.536774 237.980682,301.193298 
	C238.020813,301.401764 237.796585,301.682739 237.298309,302.021179 
z"/>
<path fill="#124463" opacity="1.000000" stroke="none" 
	d="
M230.356018,307.110291 
	C230.270294,306.885376 230.452713,306.576294 230.884277,306.151611 
	C230.963654,306.366028 230.793915,306.696045 230.356018,307.110291 
z"/>
<path fill="#2B9C91" opacity="1.000000" stroke="none" 
	d="
M205.011795,308.793365 
	C205.028076,308.900299 205.014893,308.809387 205.043289,308.807709 
	C205.071686,308.806030 204.995514,308.686432 205.011795,308.793365 
z"/>
<path fill="#2C797B" opacity="1.000000" stroke="none" 
	d="
M248.720337,300.549225 
	C248.975983,300.478516 249.281082,300.651550 249.556000,301.107727 
	C249.172119,301.320221 248.920105,301.120941 248.720337,300.549225 
z"/>
<path fill="#124463" opacity="1.000000" stroke="none" 
	d="
M238.396591,301.187714 
	C238.341202,300.943237 238.566727,300.636902 239.088867,300.298767 
	C239.149475,300.553253 238.913498,300.839539 238.396591,301.187714 
z"/>
<path fill="#2C797B" opacity="1.000000" stroke="none" 
	d="
M477.716095,184.700592 
	C477.941528,184.563477 478.293304,184.651367 478.712708,185.024902 
	C478.467712,185.182236 478.155090,185.053909 477.716095,184.700592 
z"/>
<path fill="#2C797B" opacity="1.000000" stroke="none" 
	d="
M350.967163,272.029236 
	C350.594879,271.980774 350.276520,271.867889 349.814758,271.540466 
	C349.671387,271.325958 349.863647,271.135742 350.164062,271.153503 
	C350.721100,271.355774 350.941437,271.576477 351.125549,271.833344 
	C351.125549,271.833344 351.021027,271.964813 350.967163,272.029236 
z"/>
<path fill="#2C797B" opacity="1.000000" stroke="none" 
	d="
M450.381226,188.218338 
	C450.260437,188.010269 450.391235,187.656845 450.770630,187.154785 
	C450.890411,187.361771 450.761597,187.717392 450.381226,188.218338 
z"/>
<path fill="#2C797B" opacity="1.000000" stroke="none" 
	d="
M487.802795,191.540741 
	C488.018738,191.407074 488.358673,191.515015 488.813782,191.877563 
	C488.594879,192.015564 488.260803,191.898941 487.802795,191.540741 
z"/>
<path fill="#2C797B" opacity="1.000000" stroke="none" 
	d="
M488.972778,192.317719 
	C489.217529,192.083359 489.508606,192.209671 489.860596,192.680176 
	C489.677673,192.777832 489.376892,192.662521 488.972778,192.317719 
z"/>
<path fill="#2C797B" opacity="1.000000" stroke="none" 
	d="
M408.958862,248.973038 
	C408.896851,249.326691 408.778107,249.639160 408.437073,250.078171 
	C408.214752,250.204712 408.061768,250.059052 408.098816,249.784454 
	C408.317993,249.255432 408.535278,249.035751 408.787689,248.850845 
	C408.787689,248.850845 408.902130,248.931854 408.958862,248.973038 
z"/>
<path fill="#057F7C" opacity="1.000000" stroke="none" 
	d="
M317.545990,250.853287 
	C317.140778,250.400681 317.074677,250.013290 316.996948,249.330322 
	C320.414337,245.106461 323.819214,241.156769 327.280640,237.257278 
	C329.656342,234.580917 332.110596,231.974274 334.811829,229.136627 
	C341.520111,232.261154 348.125122,235.284988 354.332306,238.977554 
	C364.650146,245.115509 377.271729,242.593735 384.188110,232.669586 
	C392.887177,220.187622 401.656677,207.754776 410.893127,195.412323 
	C412.366821,195.928268 413.343170,196.332596 414.319489,196.736923 
	C414.660187,196.466980 415.000885,196.197037 415.341583,195.927094 
	C414.557587,194.616959 413.773621,193.306839 412.989685,191.996704 
	C417.595032,184.922653 422.147614,177.813110 426.858002,170.809692 
	C427.637390,169.650940 429.106781,168.956268 430.599060,168.006912 
	C433.580261,168.813904 436.796356,169.027740 435.505066,173.403748 
	C435.253143,174.257446 436.404144,175.739395 437.221069,176.651077 
	C439.108673,178.757446 441.349945,180.560669 443.125061,182.748642 
	C444.081757,183.927872 445.283936,186.105011 444.811005,187.043762 
	C442.531311,191.568787 439.719391,195.825668 437.381287,199.704865 
	C429.884094,197.146362 425.326996,189.238693 417.537323,191.211731 
	C416.430115,198.539169 415.420319,205.221832 414.410553,211.904495 
	C413.896027,212.031601 413.381531,212.158707 412.867004,212.285828 
	C414.929352,214.063126 417.084412,215.745178 419.032288,217.640167 
	C421.930786,220.459961 423.518311,223.437500 419.798523,226.972198 
	C419.115417,227.621292 419.251770,229.132690 419.018555,230.642487 
	C417.870605,232.902771 416.713989,234.766647 414.906311,236.821014 
	C413.185822,237.330963 412.134552,237.786011 411.041962,237.932175 
	C409.928528,238.081146 408.079559,238.325806 407.787903,237.818466 
	C407.240417,236.866043 407.181335,235.214005 407.656647,234.197937 
	C408.257538,232.913376 409.674866,232.036728 410.599152,230.872299 
	C412.861420,228.022247 415.042694,225.107910 417.256592,222.219452 
	C416.980713,221.973190 416.704834,221.726929 416.428955,221.480667 
	C409.897858,224.415192 403.366791,227.349701 396.466614,230.450058 
	C395.434113,230.144485 393.908783,229.693069 391.428833,228.959122 
	C389.246613,234.352020 386.908020,239.461197 385.141510,244.761063 
	C384.160553,247.704056 389.784424,256.366089 392.184052,255.635910 
	C396.813110,254.227341 397.849640,256.883789 399.043213,260.020660 
	C395.936249,263.662476 392.829285,267.304291 388.999634,270.970947 
	C383.217804,270.867401 382.097168,266.601654 380.239777,263.211670 
	C378.428772,259.906372 372.158508,257.000000 368.556519,257.610291 
	C366.067657,258.031982 363.369354,258.265320 360.942810,257.747620 
	C357.768280,257.070374 356.655212,257.642853 357.821259,260.824829 
	C358.886292,263.731171 359.469025,267.205292 361.465851,269.263397 
	C363.274719,271.127808 366.705170,271.418884 369.279266,272.352356 
	C365.759521,275.194122 361.074677,274.726166 358.014709,271.003723 
	C356.603638,269.287170 345.418396,264.848236 342.982971,265.038300 
	C341.240692,264.361206 339.498444,263.684082 337.397583,262.983704 
	C337.039032,262.960449 337.001434,262.484253 336.993164,261.877014 
	C334.989532,259.512756 332.994141,257.755768 330.999512,255.617035 
	C333.612885,251.157898 336.225555,247.080475 338.838257,243.003067 
	C338.642670,242.529449 338.447083,242.055817 338.251495,241.582199 
	C335.411743,242.646317 332.427795,243.437531 329.768372,244.842896 
	C326.363251,246.642303 323.219574,248.936325 319.963226,251.017212 
	C319.270508,250.984299 318.577820,250.951401 317.545990,250.853287 
z"/>
<path fill="#067576" opacity="1.000000" stroke="none" 
	d="
M308.614960,254.995010 
	C295.967255,274.233032 283.001465,293.517517 269.859711,312.681274 
	C266.551086,317.506012 264.953186,317.298950 261.021179,312.634033 
	C259.848755,311.243103 258.537720,309.968994 257.138855,308.346130 
	C257.500946,306.330963 257.873993,304.553040 258.555450,302.902435 
	C260.262451,298.767731 260.972137,295.076477 256.434784,291.986877 
	C255.463776,291.325714 255.150925,288.685974 255.552765,287.240692 
	C256.290436,284.587463 257.739319,282.122131 258.974335,279.619232 
	C261.318512,274.868469 260.970825,270.754791 256.152161,267.038483 
	C256.001984,266.497406 256.016479,266.027100 256.016479,266.027100 
	C261.584778,263.201233 267.690735,261.071960 272.547180,257.323761 
	C276.270508,254.450104 278.401672,249.522415 281.271515,245.530212 
	C282.712067,243.526352 284.220734,241.571487 285.864166,239.300262 
	C289.743164,238.735489 291.624176,240.874878 294.064117,243.523743 
	C298.137512,247.945999 303.444183,251.232254 308.614960,254.995010 
z"/>
<path fill="#089F90" opacity="1.000000" stroke="none" 
	d="
M255.798553,265.740662 
	C256.016479,266.027100 256.001984,266.497406 255.996628,266.732300 
	C248.979980,271.823639 241.887238,276.568237 234.994080,281.586914 
	C231.859756,283.868896 229.120422,286.693390 226.029480,289.561646 
	C225.090485,290.162994 224.323944,290.474457 223.265472,290.905579 
	C219.445450,289.812958 221.125656,287.864349 222.324814,286.076569 
	C229.662766,275.136627 237.028061,264.215027 244.681854,253.123352 
	C245.049164,255.334610 244.797028,257.784485 245.323608,260.053650 
	C245.589142,261.197968 247.114243,262.343201 248.337601,262.908966 
	C250.649811,263.978271 253.155411,264.629333 255.798553,265.740662 
z"/>
<path fill="#09817C" opacity="1.000000" stroke="none" 
	d="
M412.704468,192.140594 
	C413.773621,193.306839 414.557587,194.616959 415.341583,195.927094 
	C415.000885,196.197037 414.660187,196.466980 414.319489,196.736923 
	C413.343170,196.332596 412.366821,195.928268 411.192383,195.256378 
	C411.469238,194.087357 411.944275,193.185913 412.704468,192.140594 
z"/>
<path fill="#07A392" opacity="1.000000" stroke="none" 
	d="
M252.655365,213.618744 
	C245.752014,223.764709 239.030304,233.596558 232.339188,243.449173 
	C229.548538,247.558380 226.801132,251.697449 224.075409,255.850067 
	C222.191986,258.719452 220.229431,258.918701 218.369537,255.956543 
	C215.021088,250.623672 211.683167,245.276688 208.612228,239.783890 
	C208.048416,238.775406 208.294144,236.733444 208.974213,235.700485 
	C215.605606,225.628052 222.372360,215.643631 229.213364,205.711807 
	C229.990906,204.582977 231.442001,203.203064 232.611771,203.173676 
	C241.190231,202.958176 249.776581,203.057388 259.414764,203.057388 
	C256.857788,207.051575 254.853561,210.182297 252.655365,213.618744 
z"/>
<path fill="#09817C" opacity="1.000000" stroke="none" 
	d="
M399.337677,259.866516 
	C397.849640,256.883789 396.813110,254.227341 392.184052,255.635910 
	C389.784424,256.366089 384.160553,247.704056 385.141510,244.761063 
	C386.908020,239.461197 389.246613,234.352020 391.428833,228.959122 
	C393.908783,229.693069 395.434113,230.144485 396.466614,230.450058 
	C403.366791,227.349701 409.897858,224.415192 416.428955,221.480667 
	C416.704834,221.726929 416.980713,221.973190 417.256592,222.219452 
	C415.042694,225.107910 412.861420,228.022247 410.599152,230.872299 
	C409.674866,232.036728 408.257538,232.913376 407.656647,234.197937 
	C407.181335,235.214005 407.240417,236.866043 407.787903,237.818466 
	C408.079559,238.325806 409.928528,238.081146 411.041962,237.932175 
	C412.134552,237.786011 413.185822,237.330963 414.646332,237.019989 
	C413.664093,239.714188 412.290741,242.399887 410.852264,245.445129 
	C410.161743,246.601700 409.536377,247.398697 408.849365,248.523270 
	C408.535278,249.035751 408.317993,249.255432 408.021454,249.712585 
	C407.587341,250.360718 407.267639,250.806168 406.860931,251.517151 
	C406.147125,252.562088 405.520325,253.341461 404.811401,254.434387 
	C403.030243,256.402710 401.331177,258.057526 399.337677,259.866516 
z"/>
<path fill="#09817C" opacity="1.000000" stroke="none" 
	d="
M343.140198,265.331970 
	C345.418396,264.848236 356.603638,269.287170 358.014709,271.003723 
	C361.074677,274.726166 365.759521,275.194122 369.279266,272.352356 
	C366.705170,271.418884 363.274719,271.127808 361.465851,269.263397 
	C359.469025,267.205292 358.886292,263.731171 357.821259,260.824829 
	C356.655212,257.642853 357.768280,257.070374 360.942810,257.747620 
	C363.369354,258.265320 366.067657,258.031982 368.556519,257.610291 
	C372.158508,257.000000 378.428772,259.906372 380.239777,263.211670 
	C382.097168,266.601654 383.217804,270.867401 388.655518,271.010071 
	C388.688812,271.755920 388.343506,272.487488 387.899139,273.503601 
	C385.787476,274.507660 383.721100,275.105774 381.771606,275.968048 
	C373.614471,279.576080 365.712677,277.762024 357.438110,274.965027 
	C356.570343,274.632385 356.099701,274.323608 355.342163,273.967896 
	C353.955261,273.277191 352.855286,272.633423 351.440430,271.911499 
	C350.941437,271.576477 350.721100,271.355774 350.259216,271.057434 
	C347.801788,269.170929 345.549591,267.398285 343.140198,265.331970 
z"/>
<path fill="#057C7A" opacity="1.000000" stroke="none" 
	d="
M320.078430,251.269531 
	C323.219574,248.936325 326.363251,246.642303 329.768372,244.842896 
	C332.427795,243.437531 335.411743,242.646317 338.251495,241.582199 
	C338.447083,242.055817 338.642670,242.529449 338.838257,243.003067 
	C336.225555,247.080475 333.612885,251.157898 330.732727,255.622772 
	C330.287628,256.019348 330.110016,256.028503 329.932373,256.037628 
	C328.225220,255.689682 326.518036,255.341736 324.438721,254.952606 
	C323.264496,254.290619 322.462494,253.669785 321.349060,253.000793 
	C320.756348,252.475693 320.475006,251.998764 320.078430,251.269531 
z"/>
<path fill="#09817C" opacity="1.000000" stroke="none" 
	d="
M329.948120,256.387451 
	C330.110016,256.028503 330.287628,256.019348 330.732025,256.004517 
	C332.994141,257.755768 334.989532,259.512756 336.984985,261.638306 
	C335.936310,261.647522 334.887543,261.288177 333.512390,260.863953 
	C332.398621,260.181549 331.611267,259.563995 330.502716,258.882080 
	C330.108978,258.124237 330.036407,257.430756 329.948120,256.387451 
z"/>
</svg>